<?xml version="1.0" standalone="no"?>
<!DOCTYPE svg PUBLIC "-//W3C//DTD SVG 20010904//EN"
 "http://www.w3.org/TR/2001/REC-SVG-20010904/DTD/svg10.dtd">
<svg version="1.0" xmlns="http://www.w3.org/2000/svg"
 width="499.000000pt" height="500.000000pt" viewBox="0 0 499.000000 500.000000"
 preserveAspectRatio="xMidYMid meet">

<g transform="translate(0.000000,500.000000) scale(0.100000,-0.100000)"
fill="#000000" stroke="none">
<path d="M2410 4820 l-1725 -5 -58 -22 c-132 -51 -258 -154 -326 -268 -38 -62
-81 -197 -81 -251 l0 -34 350 0 c237 0 350 -3 350 -10 0 -6 -158 -240 -350
-520 l-350 -509 2 -452 3 -451 322 478 c176 264 469 700 650 969 l330 490 444
3 c244 1 450 0 457 -3 10 -4 4 -18 -21 -53 -18 -26 -72 -103 -119 -172 -84
-122 -1017 -1479 -1396 -2030 -104 -151 -298 -433 -430 -627 l-242 -351 0
-139 c0 -93 5 -159 15 -198 61 -234 248 -409 482 -450 43 -8 141 -14 218 -15
l141 0 183 273 c100 149 269 400 374 557 106 157 354 526 551 820 198 294 405
603 461 685 56 83 231 344 390 580 159 237 330 491 380 565 354 521 764 1140
756 1140 -5 0 -15 1 -23 3 -7 1 -789 0 -1738 -3z"/>
<path d="M3970 2934 c-476 -692 -894 -1301 -930 -1353 -36 -53 -244 -355 -461
-671 -492 -716 -479 -696 -479 -704 0 -4 503 -5 1118 -3 1232 3 1151 -1 1287
66 114 57 212 157 271 276 68 138 64 31 62 1931 l-3 1716 -865 -1258z"/>
</g>
</svg>
